<svg width="1177" height="432" viewBox="0 0 1177 432" fill="none" xmlns="http://www.w3.org/2000/svg">
<g clip-path="url(#clip0_151_294)">
<path d="M81.9255 206.594C80.6139 206.321 78.9433 206.461 78.0624 205.693C75.9759 203.876 74.2642 201.629 71.3143 198.345C71.9845 202.489 72.2339 205.322 72.9157 208.046C79.5202 234.436 101.395 254.298 126.693 256.969C155.919 260.054 180.447 246.861 193.017 220.903C194.871 217.073 196.872 215.715 201.127 215.727C221.782 215.784 242.438 215.463 263.094 215.28C264.906 215.264 266.719 215.278 268.583 215.278C262.076 260.368 217.282 312.086 149.608 309.903C86.853 307.878 35.7426 253.62 37.45 190.745C39.2033 126.181 92.0143 74.8977 155.674 76.0988C223.502 77.3785 265.935 131.528 269.914 178.841C263.62 178.841 257.34 179.272 251.146 178.728C244.012 178.102 238.161 179.922 233.229 185.11C231.77 186.645 229.867 187.758 228.259 188.993C227.739 188.783 227.275 188.744 227.175 188.533C222.345 178.368 213.491 177.936 204.097 179.113C199.403 179.702 197.373 178.094 195.86 173.329C187.494 146.972 162.484 129.115 135.023 129.295C107.577 129.474 82.7873 147.468 74.4497 173.274C74.1962 174.059 74.0557 174.88 73.8624 175.684C74.3163 175.547 74.7702 175.411 75.2241 175.274C76.5169 178.936 77.9455 182.556 79.0695 186.269C80.5882 191.286 85.1401 193.465 88.3616 190.536C91.1182 188.029 90.6686 182.718 87.3143 179.399C86.0179 178.116 84.2542 177.239 83.1799 175.818C82.214 174.539 81.9005 172.768 81.2992 171.214C82.8349 171.035 84.3692 170.842 85.9071 170.684C86.3918 170.634 86.886 170.676 87.8439 169.819C86.1141 168.76 84.3842 167.701 82.3734 166.469C80.8521 160.511 87.6039 161.201 90.0825 158.37C94.0353 153.855 101.065 152.153 102.159 144.852C102.292 143.968 103.594 143.045 104.562 142.531C119.789 134.45 134.989 136.156 150.056 142.973C151.016 143.407 151.59 145.235 151.859 146.517C152.193 148.11 151.997 149.81 152.092 151.461C152.107 151.721 152.445 151.963 152.67 152.26C158.314 149.998 155.303 145.569 155.031 141.328C156.945 141.167 158.657 141.023 160.715 140.85C161.124 144.199 163.538 147.122 159.979 150.095C159.407 150.573 160.089 153.368 160.932 154.572C163.632 158.426 162.148 161.164 159.456 164.228C157.47 166.489 156.201 169.38 154.031 172.947C157.068 172.613 158.775 172.426 162.043 172.067C158.326 174.462 155.774 176.004 153.334 177.706C150.889 179.412 148.473 181.246 150.67 184.757C142.915 186.261 140.558 184.873 136.846 177.932C135.312 175.063 132.714 172.762 129.704 170.917C130.068 173.363 131.223 176.048 130.574 178.186C129.92 180.341 127.704 182.282 125.718 183.663C124.689 184.378 122.343 184.218 121.184 183.499C119.233 182.288 117.754 180.317 115.929 177.922C115.425 175.461 115.067 173.744 114.66 171.789C115.595 171.636 116.581 171.474 118.578 171.148C113.611 168.416 112.69 162.12 106.091 161.915C108.941 166.626 111.554 170.799 113.972 175.081C114.374 175.793 113.932 176.981 113.879 177.949C112.462 177.181 111.045 176.413 109.55 175.602C105.714 178.575 105.714 178.575 109.741 184.835C107.218 185.87 104.646 186.708 102.28 187.941C97.6874 190.336 96.8485 193.365 98.5356 198.349C99.0964 200.006 98.6241 202.012 98.6241 205.389C96.0213 202.866 94.3771 201.271 92.2463 199.548C91.5818 199.21 91.3592 199.077 91.048 198.669C86.6898 196.857 81.7819 201.313 81.9394 206.555C81.9182 206.58 81.9255 206.594 81.9255 206.594Z" fill="#0C709E"/>
<path d="M705.702 90.5935C735.977 90.1767 765.971 89.6617 795.94 90.2976C807.296 90.5386 819.004 92.0851 829.848 95.3638C865.382 106.108 889.774 128.627 896.342 166.261C907.134 228.097 870.178 271.261 815.441 279.863C806.275 281.303 796.874 281.676 787.575 281.758C760.425 281.999 733.271 281.844 705.717 281.844C705.558 280.408 705.298 279.152 705.298 277.897C705.281 216.08 705.286 154.263 705.294 92.4467C705.294 91.949 705.37 91.4513 705.702 90.5935ZM848.037 159.663C840.413 143.069 827.431 132.703 809.82 129.035C800.318 127.056 790.361 127.006 780.589 126.64C770.502 126.262 760.39 126.556 750.152 126.556C750.152 166.368 750.152 205.58 750.152 244.836C767.085 244.836 783.751 245.566 800.322 244.619C815.168 243.77 828.676 238.116 838.563 226.457C855.419 206.58 856.762 184.129 848.037 159.663Z" fill="#0C709E"/>
<path d="M522.124 277.956C511.186 274.217 500.942 269.961 491.657 262.785C496.594 251.814 501.479 240.96 506.398 230.031C513.278 233.573 519.858 237.406 526.787 240.44C546.024 248.864 566.159 251.415 586.853 247.886C595.265 246.451 602.952 243.035 606.018 233.951C608.385 226.941 606.658 219.765 600.152 216.575C591.299 212.234 581.792 209.096 572.356 206.104C557.491 201.392 542.137 198.068 527.574 192.599C513.288 187.235 501.856 177.707 497.413 162.153C490.069 136.442 501.56 110.521 525.246 97.8488C545.812 86.845 567.895 85.6125 590.362 87.4831C606.357 88.8148 621.862 92.6141 636.29 100.015C637.62 100.697 638.926 101.432 640.21 102.198C640.909 102.615 641.539 103.151 642.645 103.957C638.164 114.989 633.695 125.994 629.092 137.326C616.358 130.223 603.317 125.44 589.395 123.431C577.263 121.68 565.06 121.235 553.491 126.103C549.661 127.716 545.822 130.373 543.185 133.548C536.662 141.399 538.425 153.368 547.665 157.367C559.148 162.336 571.536 165.212 583.53 169.002C596.498 173.1 609.937 176.12 622.341 181.517C660.598 198.164 657.703 245.577 631.61 266.538C616.712 278.507 599.366 283.473 580.733 284.693C560.954 285.989 541.492 283.993 522.124 277.956Z" fill="#0C709E"/>
<path d="M925.239 123.263C929.564 118.966 933.61 114.894 937.735 110.904C938.665 110.005 939.774 109.048 940.969 108.709C946.181 107.23 950.412 104.987 951.791 99.0472C952.119 97.6378 954.173 96.5153 955.603 95.4997C958.653 93.3328 961.772 91.2542 964.954 89.2872C965.976 88.6555 967.824 87.7891 968.378 88.2168C973.416 92.104 978.616 89.3732 983.749 88.9151C991.087 88.2604 998.422 87.5614 1005.76 86.9629C1009.01 86.6985 1012.27 86.6344 1016.36 86.4395C1015.93 90.0108 1015.55 93.195 1015.1 96.9552C1020.77 99.3897 1027.51 102.287 1034.65 105.355C1030.16 115.433 1025.76 125.256 1021.39 135.089C1014.5 150.567 1007.71 166.085 1000.66 181.484C999.937 183.052 997.747 184.759 996.124 184.883C994.322 185.02 992.334 183.515 990.525 182.542C988.562 181.487 986.791 180.051 984.779 179.123C983.814 178.678 982.334 178.654 981.344 179.062C970.351 183.59 958.57 181.392 947.249 183.09C945.193 183.399 942.698 182.92 940.84 181.963C937.158 180.068 933.678 177.724 930.325 175.278C928.963 174.284 927.693 172.692 927.166 171.11C925.312 165.546 922.427 160.874 917.745 158.134C917.424 155.41 916.945 153.088 916.953 150.767C916.959 149.307 917.375 147.642 918.16 146.425C921.348 141.48 922.781 136.362 921.993 130.341C921.717 128.233 923.918 125.802 925.239 123.263Z" fill="#0B709E"/>
<path d="M1086.78 274.966C1082.67 275.601 1080.15 276.967 1080.94 281.531C1081.15 282.749 1080.29 284.54 1079.34 285.504C1075.39 289.536 1071.33 293.472 1067.11 297.216C1062.85 300.994 1058.02 302.922 1052.01 302.154C1048.49 301.704 1044.76 302.451 1041.19 303.07C1035.77 304.01 1034.26 301.996 1033.46 296.754C1032.83 292.637 1030.24 288.493 1027.58 285.096C1024.14 280.698 1022.69 276.14 1021.87 270.639C1021.15 265.819 1018.25 261.144 1015.61 256.836C1012.16 251.202 1012.06 242.762 1016.64 238.04C1018.99 235.613 1019.39 233.432 1018.25 230.451C1015.48 223.254 1016.57 216.311 1020.33 209.801C1020.96 208.715 1022.9 207.81 1024.24 207.802C1043.56 207.674 1062.88 207.653 1082.2 207.832C1083.73 207.846 1086.04 209.172 1086.62 210.49C1092.58 224.007 1098.25 237.649 1104.04 251.345C1100.38 253.572 1096.71 255.966 1092.89 258.076C1090.21 259.551 1088.83 261.036 1090.18 264.371C1091.82 268.446 1091.14 272.23 1086.78 274.966Z" fill="#0B709E"/>
<path d="M347 277.07C332.678 277.07 318.856 277.099 305.034 277.058C298.285 277.038 294.847 273.725 294.741 267.044C294.632 260.228 294.717 253.408 294.717 246.214C348.436 246.214 401.932 246.214 455.847 246.214C455.847 253.915 456.14 261.545 455.742 269.139C455.482 274.103 451.202 277.055 445.419 277.06C415.61 277.082 385.802 277.07 355.993 277.07C353.162 277.07 350.331 277.07 347 277.07Z" fill="#0A6F9D"/>
<path d="M294.715 121.171C294.864 111.649 297.645 108.933 306.824 108.932C352.44 108.927 398.057 108.926 443.673 108.933C452.868 108.934 455.916 111.996 455.927 121.189C455.934 127.314 455.928 133.439 455.928 139.858C402.167 139.858 348.812 139.858 294.715 139.858C294.715 133.809 294.715 127.728 294.715 121.171Z" fill="#0A6F9D"/>
<path d="M357 177.267C380.781 177.267 404.063 177.267 427.828 177.267C427.828 185.312 428.129 192.928 427.722 200.506C427.451 205.572 423.243 208.72 417.57 208.817C410.41 208.94 403.246 208.85 396.084 208.85C367.269 208.851 338.454 208.855 309.639 208.847C300.077 208.845 296.996 205.804 296.992 196.425C296.989 190.271 296.991 184.117 296.991 177.267C316.989 177.267 336.744 177.267 357 177.267Z" fill="#0F729F"/>
<path d="M1147.34 164.011C1148.4 171.04 1145.53 176.74 1142.07 182.025C1138.16 187.993 1133.79 193.479 1126.55 196.222C1123.01 197.565 1120.21 200.886 1116.52 203.747C1102 171.296 1087.48 138.83 1072.43 105.186C1078.12 105.186 1083.08 104.856 1087.91 105.475C1088.83 105.593 1089.92 109.515 1089.73 111.573C1089.59 113.15 1087.56 114.556 1086.18 116.27C1088.49 120.295 1090.48 126.095 1094.4 129.933C1097.9 133.363 1098.4 137.568 1100.57 141.016C1104.11 146.618 1109.73 150.978 1114.76 155.533C1117.61 158.112 1120.76 159.705 1122.49 163.943C1124.39 168.578 1129.85 167.247 1134.18 166.34C1138.48 165.44 1142.79 164.582 1147.34 164.011Z" fill="#0F729F"/>
<path d="M1035.97 171.956C1041.59 158.413 1047.1 145.238 1052.62 132.069C1052.74 131.778 1053.03 131.555 1053.66 130.783C1060.9 148.233 1068.01 165.388 1075.28 182.944C1060.58 182.944 1046.48 182.944 1031.45 182.944C1033.02 179.157 1034.44 175.741 1035.97 171.956Z" fill="#0C709E"/>
<path d="M162.313 229.747C164.971 229.835 167.441 230.256 169.912 230.677C169.98 231.16 170.048 231.643 170.116 232.126C167.934 233.763 165.888 235.632 163.547 236.995C155.709 241.555 148.01 246.483 139.766 250.168C135.206 252.206 129.664 252.048 123.277 253.09C124.416 250.857 124.576 249.916 125.105 249.607C128.667 247.525 132.264 245.494 135.938 243.619C137.953 242.59 140.342 242.202 142.193 240.971C144.069 239.724 145.49 237.794 148.084 235.183C151.718 233.862 156.922 231.972 162.313 229.747Z" fill="#0F729F"/>
<path d="M901.908 347.367C902.43 346.036 902.983 344.388 903.465 344.409C907.873 344.596 912.265 345.128 916.671 345.43C917.97 345.52 919.413 345.488 920.593 345.016C926.908 342.493 931.613 345.413 931.861 352.225C931.975 355.348 931.88 358.478 931.88 361.843C929.98 361.843 928.554 361.843 926.532 361.843C926.532 358.782 926.899 355.77 926.383 352.919C926.109 351.411 924.297 350.182 923.18 348.827C921.971 350.128 920.002 351.283 919.715 352.763C919.16 355.626 919.553 358.673 919.553 361.863C917.573 361.863 916.132 361.863 914.114 361.863C914.114 358.765 914.474 355.751 913.967 352.889C913.703 351.399 911.912 350.179 910.811 348.837C909.559 350.125 907.524 351.255 907.224 352.735C906.649 355.581 907.057 358.625 907.057 361.826C905.211 361.826 903.818 361.826 901.907 361.826C901.907 357.057 901.907 352.44 901.908 347.367Z" fill="#448090"/>
<path d="M763.252 362.097C761.934 361.359 760.368 360.645 760.346 359.886C760.153 353.137 760.234 346.379 760.234 339.158C764.953 339.158 769.245 338.789 773.448 339.244C779.736 339.925 783.986 345.253 783.645 351.264C783.307 357.22 778.953 361.576 772.667 362.013C769.697 362.219 766.704 362.082 763.252 362.097ZM766.646 357.602C768.618 357.542 770.641 357.743 772.551 357.367C776.358 356.618 778.175 354.034 777.978 350.198C777.779 346.299 775.555 344.143 771.715 343.78C769.952 343.613 768.16 343.751 766.041 343.751C766.041 348.439 766.041 352.695 766.646 357.602Z" fill="#6C877A"/>
<path d="M741.99 344.034C740.868 346.386 739.734 348.337 738.538 350.395C740.15 355.897 744.3 348.422 745.857 350.835C746.272 354.148 746.866 356.558 746.737 358.928C746.679 359.98 745.302 361.604 744.274 361.829C741.927 362.345 739.422 362.298 736.989 362.219C734.388 362.133 731.564 362.32 729.247 361.378C723.93 359.216 724.259 354.553 729.834 349.224C727.471 344.198 727.991 341.149 731.492 339.501C735.76 337.493 739.927 339.135 741.99 344.034ZM732.48 352.783C732.134 354.31 731.788 355.837 731.442 357.363C733.584 357.68 735.725 357.997 737.867 358.313C738.047 357.772 738.226 357.231 738.406 356.689C736.688 355.297 734.971 353.904 732.48 352.783Z" fill="#6C877A"/>
<path d="M244.27 359.201C243.619 360.434 242.924 361.951 242.167 361.983C237.072 362.196 231.964 362.094 226.581 362.094C226.581 354.314 226.581 347.072 226.581 339.041C231.726 339.041 236.801 338.872 241.845 339.191C242.791 339.251 243.614 341.266 244.938 342.94C239.792 343.498 236.066 343.834 232.383 344.44C232.109 344.485 232.151 346.462 231.983 348.192C234.984 348.192 237.612 347.996 240.182 348.297C241.086 348.403 241.848 349.728 242.675 350.496C241.814 351.231 241.016 352.484 240.078 352.6C237.644 352.901 235.148 352.701 232.302 352.701C232.155 354.422 232.036 355.818 231.908 357.324C236.226 357.842 240.211 358.32 244.27 359.201Z" fill="#C79953"/>
<path d="M276.944 356.844C274.95 347.46 279.598 343.193 290.019 344.663C290.191 342.552 290.361 340.454 290.561 338C292.226 338 293.761 338 295.556 338C295.556 345.973 295.556 353.689 295.556 362.18C289.157 360.434 281.445 366.066 276.944 356.844ZM290.644 353.451C290.51 350.333 288.816 348.147 285.811 348.589C284.311 348.81 282.235 351.128 282.061 352.681C281.882 354.281 283.294 356.983 284.729 357.645C287.573 358.956 289.72 357.288 290.644 353.451Z" fill="#C79953"/>
<path d="M621.108 351.138C621.108 348.7 621.108 346.741 621.108 344.654C625.387 344.467 629.221 343.93 632.989 344.225C638.052 344.622 641.422 349.583 640.593 354.629C639.71 359.999 635.588 363.073 630.283 362.264C629.189 362.098 628.123 361.743 627.071 361.482C625.427 363.98 628.883 370.2 621.108 368.158C621.108 362.773 621.108 357.195 621.108 351.138ZM631.417 348.407C627.856 348.424 626.094 350.576 626.497 353.746C626.693 355.283 628.505 357.438 629.936 357.761C631.314 358.072 633.95 356.79 634.607 355.488C635.949 352.828 635.63 349.952 631.417 348.407Z" fill="#828C71"/>
<path d="M884.298 362.046C884.219 364.238 884.219 366.053 884.219 368.282C882.527 368.408 881.141 368.511 879.378 368.642C879.378 360.534 879.378 352.798 879.378 344.262C883.344 344.262 887.504 343.84 891.538 344.371C896.34 345.002 899.055 349.747 898.273 354.944C897.545 359.78 893.673 362.798 888.708 362.333C887.256 362.197 885.82 361.895 884.298 362.046ZM884.444 354.978C886.111 355.986 887.737 357.658 889.459 357.763C890.569 357.83 892.448 355.785 892.874 354.357C893.743 351.444 892.409 348.803 889.249 348.538C885.594 348.23 883.963 350.614 884.444 354.978Z" fill="#528287"/>
<path d="M659.706 360.799C656.106 361.474 652.806 361.928 649.203 362.424C649.141 363.687 649.037 365.826 648.913 368.367C647.413 368.449 646.017 368.525 644.282 368.619C644.282 360.5 644.282 352.75 644.282 344.785C648.189 344.579 652.295 343.655 656.062 344.413C658.544 344.912 661.394 347.409 662.557 349.763C664.434 353.562 663.487 357.586 659.706 360.799ZM652.816 348.426C651.803 349.21 650.001 349.931 649.933 350.79C649.77 352.856 649.78 355.543 650.961 356.898C651.771 357.827 655.892 357.607 656.369 356.727C657.343 354.929 657.153 352.295 656.814 350.102C656.699 349.357 654.695 348.903 652.816 348.426Z" fill="#828C71"/>
<path d="M1056 357.187C1052.96 357.201 1050.39 356.686 1049.11 360.253C1048.68 361.446 1045.91 361.797 1044.21 362.534C1043.94 362.16 1043.66 361.787 1043.39 361.414C1046.5 354.464 1049.49 347.459 1052.77 340.593C1053.98 338.075 1058.2 338.339 1059.46 341.005C1062.62 347.739 1065.55 354.585 1068.58 361.386C1068.16 361.86 1067.75 362.335 1067.33 362.809C1065.56 361.578 1063.87 360.164 1061.97 359.17C1060.25 358.271 1058.29 357.83 1056 357.187ZM1055.6 345.514C1054.63 347.843 1053.65 350.173 1052.59 352.738C1055.15 352.738 1057.01 352.738 1059.45 352.738C1058.26 350.035 1057.28 347.82 1055.6 345.514Z" fill="#297A98"/>
<path d="M593.872 341.908C592.283 342.677 590.772 343.433 589.318 343.336C586.542 343.152 583.71 342.2 581.541 346.502C584.202 347.389 586.55 348.241 588.94 348.952C592.273 349.944 595.474 351.154 595.355 355.38C595.229 359.868 592.159 361.883 588.184 362.206C585.284 362.442 582.241 362.128 579.396 361.476C576.32 360.772 575.919 358.802 578.055 356.547C580.552 357.084 582.928 357.96 585.308 357.972C586.808 357.98 588.314 356.696 589.818 355.992C588.626 355.04 587.555 353.831 586.212 353.204C584.584 352.445 582.363 352.633 581.055 351.589C579.27 350.166 576.937 347.94 576.979 346.107C577.028 343.977 578.94 341.235 580.847 339.943C584.487 337.475 590.915 338.624 593.872 341.908Z" fill="#828C71"/>
<path d="M50.3315 361.921C44.7998 359.67 42.008 355.756 42.1808 350.204C42.3318 345.35 44.6751 341.545 49.4126 339.813C54.5669 337.928 59.5044 338.147 63.924 342.337C62.6707 345.1 61.4074 346.179 58.3258 344.242C55.1645 342.256 51.1788 342.762 49.5585 346.011C48.32 348.494 48.2906 352.531 49.4843 355.039C51.0175 358.26 54.8883 359.069 58.1717 357.043C60.8941 355.363 62.3867 356.084 63.8743 358.591C60.2109 362.633 55.7363 363.342 50.3315 361.921Z" fill="#F09F3B"/>
<path d="M601.902 344.248C602.84 347.003 603.559 349.711 603.831 352.463C604.083 355.004 603.757 357.882 607.388 357.797C610.651 357.72 611.268 355.247 611.213 352.48C611.164 350.004 611.202 347.526 611.202 344.529C613.043 344.434 614.565 344.355 616.346 344.263C616.48 346.035 616.651 347.329 616.662 348.624C616.697 352.917 616.675 357.211 616.675 361.655C612.501 361.921 608.689 362.806 605.157 362.159C602.864 361.739 599.813 359.442 599.173 357.352C598.095 353.831 598.526 349.801 598.672 345.998C598.696 345.37 600.505 344.811 601.902 344.248Z" fill="#828C71"/>
<path d="M1128.31 352.994C1131.42 352.317 1134.18 351.837 1137.22 351.306C1136.84 348.021 1134.65 348.156 1132.01 348.46C1130.39 348.645 1128.69 348.075 1127.1 347.137C1131.17 343.733 1135.65 342.745 1139.68 345.493C1145.77 349.641 1141.97 356.191 1143.16 361.643C1139.2 361.9 1135.72 362.34 1132.25 362.302C1126.6 362.241 1124.78 358.224 1128.31 352.994Z" fill="#1C78A1"/>
<path d="M476.167 340.783C476.171 342.531 476.171 343.852 476.171 345.38C477.883 344.917 479.29 344.382 480.743 344.172C485.309 343.514 488.713 346.047 489.036 350.593C489.292 354.202 489.087 357.843 489.087 361.767C487.366 361.767 485.979 361.767 484.038 361.767C484.038 359.353 484.091 357.069 484.025 354.789C483.949 352.219 484.663 348.992 480.592 348.884C476.639 348.779 476.205 351.676 476.178 354.71C476.158 356.868 476.174 359.027 476.174 361.625C474.499 361.625 473.007 361.625 471.273 361.625C471.273 353.928 471.273 346.331 471.273 338.351C473.279 338.195 475.762 336.156 476.167 340.783Z" fill="#9B8F63"/>
<path d="M1031.86 353.327C1031.86 356.397 1031.86 359.019 1031.86 361.852C1029.96 361.852 1028.53 361.852 1026.6 361.852C1026.6 359.256 1026.61 356.809 1026.59 354.362C1026.57 351.623 1026.6 348.66 1022.69 348.832C1019.02 348.993 1018.83 351.795 1018.85 354.603C1018.87 356.897 1018.86 359.192 1018.86 361.796C1017.08 361.893 1015.67 361.969 1013.93 362.064C1013.93 356.073 1013.93 350.386 1013.93 344.811C1017.82 344.568 1021.47 343.986 1025.07 344.2C1030.29 344.511 1031.85 348.212 1031.86 353.327Z" fill="#297A98"/>
<path d="M105.503 361.394C103.826 361.856 102.398 361.952 100.445 362.082C100.445 358.592 100.831 355.547 100.283 352.681C100.007 351.237 98.0368 350.116 96.8326 348.848C95.5429 350.096 93.438 351.175 93.1365 352.628C92.5466 355.471 92.9633 358.522 92.9633 361.794C91.0504 361.896 89.6358 361.971 87.8384 362.067C87.8384 356.194 87.8384 350.636 87.8384 344.23C91.9757 344.23 96.3239 343.431 100.126 344.526C102.459 345.199 104.808 348.513 105.604 351.114C106.533 354.149 105.777 357.7 105.503 361.394Z" fill="#F09F3B"/>
<path d="M959.92 344.235C962.172 344.28 964.064 344.651 965.809 344.296C971.162 343.208 975.078 345.894 975.397 351.377C975.597 354.811 975.434 358.265 975.434 361.888C973.512 361.888 972.077 361.888 970.1 361.888C970.1 358.739 970.461 355.731 969.951 352.878C969.686 351.391 967.885 350.178 966.778 348.841C965.411 350.152 963.21 351.274 962.858 352.817C962.219 355.626 962.677 358.685 962.677 361.861C960.695 361.861 959.255 361.861 957.138 361.861C957.138 356.581 957.056 351.335 957.242 346.098C957.265 345.45 958.708 344.851 959.92 344.235Z" fill="#448090"/>
<path d="M420.136 351.771C420.685 353.017 421.113 353.905 421.562 354.836C426.107 352.512 423.231 343.582 432.094 344.35C428.769 351.878 425.954 359.067 422.428 365.889C420.664 369.302 416.871 369.474 411.017 366.894C412.802 365.749 414.001 364.323 415.168 364.349C419.68 364.448 419.306 362.234 418.026 359.268C415.996 354.567 414.004 349.849 411.896 344.904C415.466 343.449 417.538 344.171 418.46 347.75C418.787 349.021 419.486 350.196 420.136 351.771Z" fill="#AC945E"/>
<path d="M321.124 346.583C321.286 345.689 321.432 344.823 321.594 344.82C326.081 344.738 330.662 344.224 335.011 344.997C336.682 345.294 338.632 348.403 339.029 350.501C339.693 354.006 339.21 357.727 339.21 361.716C337.635 361.716 336.115 361.716 334.061 361.716C334.061 358.553 334.447 355.521 333.9 352.667C333.623 351.225 331.659 350.106 330.458 348.841C329.177 350.085 327.083 351.163 326.787 352.609C326.202 355.459 326.615 358.513 326.615 361.801C324.694 361.902 323.273 361.977 321.115 362.09C321.115 356.861 321.115 351.938 321.124 346.583Z" fill="#B89454"/>
<path d="M871.305 345.481C876.264 349.967 877.06 354.587 873.878 358.778C870.976 362.601 864.609 363.613 860.35 360.928C856.417 358.448 854.989 353.25 857.102 349.103C859.401 344.589 864.698 343.126 871.305 345.481ZM870.217 354.343C870.606 351.334 869.735 348.667 866.467 348.628C864.882 348.61 862.37 350.414 861.921 351.892C861.45 353.44 862.392 356.361 863.706 357.305C866.133 359.048 868.748 358.287 870.217 354.343Z" fill="#528287"/>
<path d="M788.686 346.684C792.45 343.674 796.509 342.847 799.99 345.492C802.418 347.336 803.738 350.641 805.553 353.293C805.15 353.759 804.747 354.225 804.345 354.691C800.154 354.691 795.964 354.691 791.631 354.691C793.483 362.092 800.745 353.887 802.913 359.42C798.723 363.256 792.66 363.448 788.685 359.872C785.066 356.616 784.963 351.788 788.686 346.684ZM796.298 348.15C794.531 348.899 792.765 349.649 790.998 350.398C791.191 350.736 791.383 351.073 791.576 351.411C794.034 351.411 796.493 351.411 798.952 351.411C799.367 350.838 799.782 350.265 800.198 349.693C799.141 349.273 798.084 348.853 796.298 348.15Z" fill="#608580"/>
<path d="M136.648 345.08C140.482 347.317 141.936 350.323 141.284 354.776C137.065 354.776 132.97 354.776 128.642 354.776C130.55 361.884 137.662 354.046 139.88 359.295C136.167 363.062 130.809 363.57 126.555 360.581C123.087 358.144 121.817 353.355 123.607 349.473C125.72 344.891 130.286 343.257 136.648 345.08ZM135.35 349.319C132.11 347.113 129.777 347.617 128.958 352.629C131.247 351.742 133.536 350.854 135.35 349.319Z" fill="#DC9B43"/>
<path d="M680.133 361.237C676.177 361.09 672.025 361.791 669.06 360.233C664.387 357.778 664.157 351.065 667.698 347.21C671.48 343.093 678.642 342.981 682.515 346.977C686.47 351.059 685.613 356.969 680.133 361.237ZM670.861 352.697C670.735 355.741 671.804 358.281 675.154 357.85C676.779 357.641 679.295 355.588 679.37 354.255C679.471 352.479 677.586 350.59 676.555 348.749C674.683 349.801 672.812 350.853 670.861 352.697Z" fill="#828C71"/>
<path d="M947.961 354.885C945.433 354.885 943.359 354.885 941.286 354.885C941.218 355.536 941.149 356.188 941.08 356.839C944.804 357.391 948.528 357.943 953.325 358.654C947.934 363.047 942.071 363.372 938.448 360.226C935.086 357.305 934.175 353.584 935.981 349.43C937.689 345.501 942.528 343.25 946.787 344.254C951.443 345.352 953.807 348.764 953.641 354.886C951.918 354.886 950.167 354.886 947.961 354.885ZM941.656 349.347C941.849 350.16 941.981 351.654 942.245 351.678C944.384 351.869 946.549 351.785 949.283 351.785C947.249 348.056 945.135 347.321 941.656 349.347Z" fill="#448090"/>
<path d="M380.802 353.1C378.495 353.964 376.225 354.569 373.917 354.844C372.052 355.066 370.141 354.889 368.25 354.889C368.194 355.569 368.138 356.25 368.082 356.931C371.762 357.433 375.443 357.936 380.181 358.584C374.761 363.042 369.685 363.479 365.744 360.639C362.203 358.087 361.128 354.46 362.434 350.479C363.898 346.016 367.431 343.84 372.079 344.141C377.276 344.479 380.201 347.501 380.802 353.1ZM368.735 348.996C368.304 349.796 367.873 350.597 367.353 351.563C370.291 351.563 372.838 351.563 375.848 351.563C374.39 348.07 372.268 347.449 368.735 348.996Z" fill="#B89454"/>
<path d="M300.142 357.589C298.112 353.11 298.822 349.349 302.158 346.416C305.468 343.507 309.458 343.157 313.28 345.278C316.728 347.191 318.368 350.282 317.474 354.943C313.386 354.943 309.349 354.943 305.312 354.943C305.248 355.603 305.184 356.264 305.12 356.924C308.804 357.391 312.488 357.858 316.984 358.427C311.411 364.064 304.984 363.448 300.142 357.589ZM311.865 349.47C307.425 347.2 306.579 347.437 304.719 352.686C307.76 351.65 310.012 350.883 311.865 349.47Z" fill="#C79953"/>
<path d="M70.7276 361.52C65.3482 357.478 64.108 353.084 66.7909 348.59C69.3039 344.38 74.8964 342.816 79.4287 345.14C83.1049 347.025 84.5832 350.056 83.8242 354.663C79.7709 354.663 75.7149 354.663 71.3745 354.663C73.1713 361.747 80.3972 354.23 82.5878 359.59C79.2105 363.317 75.1764 362.713 70.7276 361.52ZM71.2125 350.8C73.6584 351.239 76.1042 351.678 79.272 352.246C76.3805 347.174 75.3972 347.022 71.2125 350.8Z" fill="#F09F3B"/>
<path d="M830.467 345.165C839.234 342.6 844.288 346.211 843.745 354.71C839.696 354.71 835.605 354.71 831.32 354.71C833.078 361.979 840.413 353.999 842.506 359.451C838.036 363.56 831.243 363.387 827.555 359.071C823.963 354.867 824.961 349.507 830.467 345.165ZM832.164 351.799C834.365 351.799 836.567 351.799 838.769 351.799C838.925 351.261 839.081 350.723 839.237 350.185C837.66 349.48 836.022 348.134 834.528 348.279C833.395 348.388 832.444 350.396 832.164 351.799Z" fill="#528287"/>
<path d="M502.213 362.448C495.183 361.001 492.82 358.562 492.838 353.116C492.854 348.392 495.779 345.009 500.562 344.182C506.984 343.073 511.608 347.65 510.796 354.84C506.796 354.84 502.721 354.84 498.512 354.84C500.28 361.969 507.644 353.938 510.029 360.459C507.458 361.161 505.024 361.825 502.213 362.448ZM501.694 348.082C500.447 348.996 499.199 349.91 497.178 351.392C500.986 351.392 503.453 351.392 505.92 351.392C506.046 351.02 506.172 350.649 506.299 350.278C505.023 349.541 503.746 348.803 501.694 348.082Z" fill="#9B8F63"/>
<path d="M195.716 346.193C199.605 350.622 200.128 354.872 197.505 358.539C194.877 362.21 189.367 363.57 184.985 361.535C180.584 359.491 179.181 355.86 179.948 351.285C181.032 344.819 188.102 342.404 195.716 346.193ZM193.196 350.563C189.498 347.563 185.928 348.001 185.265 351.796C184.975 353.453 185.748 355.765 186.874 357.04C187.65 357.916 190.837 358.18 191.252 357.569C192.476 355.764 192.857 353.388 193.196 350.563Z" fill="#DC9B43"/>
<path d="M443.954 348.893C440.211 348.801 439.294 351.002 439.156 353.728C439.03 356.211 439.129 358.705 439.129 361.795C437.464 361.877 435.967 361.951 434.205 362.038C434.205 355.999 434.205 350.418 434.205 344.834C438.184 344.587 442.017 344.038 445.817 344.205C449.347 344.36 451.719 346.619 451.972 350.248C452.235 354.012 452.031 357.809 452.031 361.826C450.214 361.826 448.827 361.826 447.659 361.826C445.276 357.638 449.736 352.097 443.954 348.893Z" fill="#AC945E"/>
<path d="M548.333 348.112C547.828 349.086 547.439 350.762 547.638 350.835C549.186 351.403 551.098 351.271 552.41 352.115C554.056 353.173 556.407 355.015 556.332 356.405C556.233 358.227 554.307 361.136 552.736 361.455C549.045 362.206 545.097 361.695 540.448 361.695C542.453 353.9 548.711 361.334 551.179 356.489C549.267 355.952 547.151 355.784 545.546 354.79C543.773 353.693 541.202 351.777 541.273 350.33C541.367 348.416 543.386 345.461 545.117 345.007C548.385 344.151 552.038 344.76 555.695 344.76C554.874 351.394 551.016 347.405 548.333 348.112Z" fill="#9B8F63"/>
<path d="M521.971 348.064C520.648 348.494 519.728 348.932 518.808 349.369C518.817 349.757 518.826 350.144 518.835 350.532C520.835 351.005 523.097 351.051 524.764 352.069C526.496 353.128 528.755 355.121 528.763 356.716C528.772 358.405 526.631 361.252 525.026 361.572C521.355 362.305 517.438 361.804 512.975 361.804C515.211 353.725 521.308 361.462 523.979 356.556C522.266 356.037 520.328 355.855 518.886 354.915C516.881 353.609 513.847 351.747 513.831 350.097C513.813 348.271 516.392 345.433 518.394 344.806C521.3 343.896 524.702 344.573 527.935 344.573C527.914 350.697 524.594 348.135 521.971 348.064Z" fill="#9B8F63"/>
<path d="M400.805 344.472C404.252 344.482 407.313 344.636 410.653 344.803C409.731 352.546 402.694 344.822 400.964 350.493C403.072 350.992 405.406 351.113 407.266 352.113C408.969 353.029 411.348 354.951 411.284 356.329C411.198 358.156 409.276 361.093 407.704 361.416C404.023 362.174 400.079 361.659 395.469 361.659C397.363 353.756 403.741 361.522 405.877 356.722C403.417 353.563 395.24 356.654 396.142 349.399C396.358 347.654 398.931 346.201 400.805 344.472Z" fill="#AC945E"/>
<path d="M1112.12 351.364C1112.13 357.825 1114.18 359.131 1119.54 356.98C1120.78 356.484 1122.49 357.166 1124.51 357.355C1120.43 362.935 1113.93 363.813 1109.67 360.188C1105.68 356.788 1105.39 350.611 1109.05 346.911C1113.14 342.772 1119.52 343.209 1124.93 349.093C1122.37 349.226 1120.51 349.842 1119.11 349.288C1116.23 348.145 1114 348.196 1112.12 351.364Z" fill="#1C78A1"/>
<path d="M355.988 344.672C357.647 345.75 358.945 346.675 360.243 347.599C360.179 348.158 360.114 348.716 360.05 349.274C358.375 349.274 356.681 349.115 355.03 349.314C352.939 349.567 350.385 349.534 348.992 350.737C348.092 351.515 348.184 355.156 349.138 355.959C350.528 357.127 353.083 356.999 355.163 357.223C356.761 357.395 358.393 357.257 360.896 357.257C357.443 362.828 353.381 363.13 348.993 361.82C344.662 360.527 342.416 356.783 342.928 352.149C343.442 347.509 346.511 345.176 350.725 344.277C352.272 343.947 353.989 344.415 355.988 344.672Z" fill="#B89454"/>
<path d="M1071.59 354.041C1071.57 352.581 1071.95 351.06 1071.46 350.679C1067.78 347.841 1069.99 345.727 1071.57 342.763C1074.24 337.779 1075.67 336.702 1083.25 338.547C1080.55 340.6 1078.68 342.023 1076.88 343.392C1078.37 344.708 1079.71 345.898 1081.06 347.087C1079.91 347.96 1078.77 348.832 1076.89 350.272C1076.89 353.384 1076.89 357.469 1076.89 361.816C1075.04 361.816 1073.63 361.816 1071.59 361.816C1071.59 359.35 1071.59 356.929 1071.59 354.041Z" fill="#297A98"/>
<path d="M249.527 354.501C248.149 351.126 246.938 348.1 245.49 344.48C254.286 343.426 251.67 351.967 255.643 354.64C259.702 352.629 256.852 343.493 265.581 344.498C263.195 350.235 261.208 355.443 258.86 360.482C257.691 362.991 253.404 362.793 252.053 360.303C251.113 358.568 250.47 356.673 249.527 354.501Z" fill="#C79953"/>
<path d="M809.456 344.419C811.559 348.036 813.309 351.526 815.006 354.909C819.208 352.245 816.703 343.865 825.277 344.299C822.834 350.101 820.794 355.435 818.341 360.572C817.033 363.31 812.727 362.767 811.379 359.741C809.23 354.917 807.316 349.988 805.091 344.587C806.694 344.469 807.898 344.38 809.456 344.419Z" fill="#608580"/>
<path d="M457.192 353.074C457.191 352.32 457.333 351.846 457.167 351.679C453.287 347.795 456.178 344.337 458.029 340.548C460.222 340.32 462.89 339.235 462.959 343.458C462.966 343.938 464.022 344.416 464.611 344.869C465.394 345.471 466.195 346.048 466.988 346.636C466.183 347.404 465.086 348.033 464.637 348.971C463.824 350.669 462.922 352.565 462.972 354.352C463.008 355.615 464.457 356.922 465.455 358.049C466.267 358.966 467.347 359.645 468.551 360.628C461.277 364.404 457.486 361.728 457.192 353.074Z" fill="#AC945E"/>
<path d="M169.035 357.856C168.49 354.125 170.706 350.121 166.471 347.757C166.323 347.674 166.998 345.89 167.469 344.993C167.873 344.226 168.729 343.674 169.051 342.89C171.283 337.468 173.685 336.408 180.66 338.879C178.063 340.758 176.083 342.191 173.996 343.701C175.82 344.852 177.281 345.775 178.743 346.697C177.435 347.816 176.127 348.935 174.124 350.648C174.124 353.603 174.124 357.536 174.124 361.505C170.708 362.631 168.606 362.384 169.035 357.856Z" fill="#DC9B43"/>
<path d="M713.13 361.862C705.835 362.864 703.964 361.231 703.431 354.654C703.254 352.476 701.863 350.421 701.31 348.239C701.065 347.274 701.273 346.005 701.724 345.097C702.463 343.608 703.568 342.301 704.75 340.581C706.655 340.198 709.034 339.59 708.99 343.431C708.985 343.888 709.663 344.423 710.124 344.8C711.084 345.585 712.111 346.29 713.111 347.027C711.976 347.93 710.841 348.833 709.167 350.165C709.52 352.891 706.342 357.813 713.234 358.689C713.442 358.716 713.407 360.658 713.13 361.862Z" fill="#6C877A"/>
<path d="M120.32 345.481C119.441 347.232 118.29 348.691 117.139 350.149C113.479 355.477 118.454 357.879 122.24 360.811C114.779 363.944 111.175 361.703 110.951 354.753C110.873 352.337 112.071 349.362 108.502 348.091C108.326 348.028 108.608 346.063 109.017 345.134C109.47 344.109 110.254 343.203 111.009 342.345C111.658 341.607 112.519 340.429 113.197 340.487C114.195 340.574 115.136 341.553 116.059 342.212C117.408 343.176 118.72 344.193 120.32 345.481Z" fill="#F09F3B"/>
<path d="M980.818 356.632C980.261 353.439 982.185 350.28 978.324 348.04C976.308 346.869 981.544 340.594 983.575 340.559C986.07 342.51 987.746 343.704 989.262 345.073C989.767 345.53 990.285 346.858 990.075 347.069C989.064 348.085 987.806 348.855 986.184 350.043C986.184 351.975 986.184 354.572 986.184 357.483C987.142 357.687 988.164 357.677 988.915 358.124C989.765 358.631 990.372 359.548 991.085 360.287C990.316 360.953 989.607 362.098 988.767 362.204C984.791 362.705 981.413 361.957 980.818 356.632Z" fill="#448090"/>
<path d="M849.235 362.053C848.38 360.892 847.618 359.766 847.599 358.628C847.485 351.849 847.543 345.068 847.543 338.064C849.474 338.064 850.905 338.064 852.869 338.064C852.869 345.364 852.978 352.477 852.727 359.576C852.697 360.446 850.737 361.248 849.235 362.053Z" fill="#528287"/>
<path d="M688.301 345.686C691.869 344.924 695.36 344.583 699.607 344.169C699.238 345.921 699.107 348.514 698.614 348.585C692.235 349.498 693.981 354.341 693.685 358.201C693.599 359.329 693.49 360.455 693.369 361.829C691.756 361.829 690.335 361.829 688.222 361.829C688.222 356.555 688.222 351.331 688.301 345.686Z" fill="#828C71"/>
<path d="M202.551 360.395C202.499 354.859 202.499 349.765 202.499 344.664C206.473 344.664 209.783 344.664 213.78 344.664C213.487 345.926 213.317 348.512 212.806 348.581C206.743 349.402 208.034 353.916 207.88 357.742C207.828 359.034 207.706 360.322 207.552 362.525C205.613 361.864 204.108 361.35 202.551 360.395Z" fill="#DC9B43"/>
<path d="M1088.05 344.528C1090.31 344.688 1092.22 344.688 1094.56 344.688C1094.68 346.275 1096.41 348.351 1092.43 349.261C1091.01 349.586 1089.59 352.173 1089.16 353.966C1088.6 356.312 1089.02 358.894 1089.02 361.724C1087.42 361.878 1086.02 362.014 1084.59 362.151C1084.33 361.499 1084 361.056 1083.99 360.61C1083.93 356.286 1084.09 351.954 1083.86 347.642C1083.69 344.557 1085.03 343.828 1088.05 344.528Z" fill="#1C78A1"/>
<path d="M156.008 346.978C149.484 350.062 149.475 355.626 150.228 361.691C148.451 361.861 147.058 361.994 145.304 362.161C145.304 356.142 145.304 350.443 145.304 344.753C148.598 344.571 151.762 344.317 154.925 344.327C155.292 344.329 155.655 345.791 156.008 346.978Z" fill="#DC9B43"/>
<path d="M537.68 353.962C537.68 356.733 537.68 359.029 537.68 361.787C535.788 361.89 534.251 361.974 532.4 362.075C532.4 356.104 532.4 350.544 532.4 344.49C533.974 344.41 535.509 344.331 537.68 344.221C537.68 347.621 537.68 350.554 537.68 353.962Z" fill="#9B8F63"/>
<path d="M187.075 192.047C185.192 192.589 183.563 192.877 181.934 193.165C181.785 192.718 181.636 192.27 181.487 191.822C180.828 192.732 180.169 193.641 180.096 193.743C176.949 193.061 174.222 192.471 170.058 191.569C171.859 190.1 172.994 188.454 174.416 188.151C178.344 187.312 182.381 186.838 186.396 186.637C187.857 186.564 189.378 187.67 191.842 188.607C189.788 190.057 188.558 190.925 187.075 192.047Z" fill="#1C78A1"/>
<path d="M1005.13 344.375C1006.69 345.225 1008.71 346.086 1008.79 347.087C1009.13 351.831 1008.94 356.613 1008.94 361.732C1007.28 361.868 1005.9 361.983 1003.49 362.181C1003.91 356.008 1004.3 350.229 1005.13 344.375Z" fill="#297A98"/>
<path d="M1097.92 346.434C1099.25 345.226 1100.57 344.471 1102.67 343.261C1102.67 350.222 1102.67 355.919 1102.67 361.85C1101.2 361.85 1099.8 361.85 1097.91 361.85C1097.91 356.757 1097.91 351.822 1097.92 346.434Z" fill="#1C78A1"/>
<path d="M267.813 357.843C267.813 353.252 267.813 349.14 267.813 344.617C269.439 344.452 270.816 344.313 272.603 344.132C272.603 350.172 272.603 355.834 272.603 361.644C269.479 362.619 267.384 362.339 267.813 357.843Z" fill="#C79953"/>
<path d="M82.4695 206.685C81.9255 206.594 81.9181 206.581 82.3623 206.635C83.5566 201.958 88.2271 201.464 91.092 199.019C91.3592 199.078 91.5817 199.211 91.8476 199.595C91.9713 200.671 92.1441 201.592 92.013 202.467C91.7666 204.111 91.8298 206.119 90.8972 207.279C88.8073 209.877 86.1859 212.048 83.971 214.208C83.7465 212.465 83.38 209.62 82.4695 206.685Z" fill="#1C78A1"/>
<path d="M562.806 356.195C565.997 360.468 563.99 366.243 557.939 366.965C563.098 363.914 553.583 357.499 562.806 356.195Z" fill="#9B8F63"/>
<path d="M390.785 350.847C391.817 351.802 392.388 352.744 392.96 353.686C392.185 354.108 391.327 354.99 390.652 354.868C388.366 354.453 384.161 353.459 384.203 353.081C384.678 348.847 388.212 351.657 390.785 350.847Z" fill="#B89454"/>
<path d="M1102.19 336.715C1102.58 338.335 1102.66 339.76 1102.74 341.185C1101.36 341.254 1099.86 341.674 1098.66 341.255C1098 341.026 1097.34 338.606 1097.51 338.499C1098.85 337.657 1100.4 337.138 1102.19 336.715Z" fill="#297A98"/>
<path d="M271.385 336.347C272.116 337.858 272.511 339.242 272.907 340.626C271.573 340.984 270.191 341.716 268.923 341.553C268.218 341.463 267.057 339.227 267.207 339.079C268.333 337.969 269.735 337.137 271.385 336.347Z" fill="#C79953"/>
<path d="M531.798 339.711C532.124 336.272 534.003 335.388 536.524 336.825C537.314 337.276 537.928 339.761 537.432 340.427C535.672 342.79 533.582 342.556 531.798 339.711Z" fill="#9B8F63"/>
<path d="M1003.09 339.058C1004.31 336.035 1006.25 335.135 1008.48 337.219C1009.13 337.82 1009.09 340.342 1008.42 340.942C1006.19 342.955 1004.23 342.195 1003.09 339.058Z" fill="#448090"/>
<path d="M91.048 198.669C88.2272 201.464 83.5567 201.958 82.3836 206.609C81.7819 201.313 86.6898 196.857 91.048 198.669Z" fill="#FEFFFF" fill-opacity="0.08"/>
</g>
<defs>
<clipPath id="clip0_151_294">
<rect width="1177" height="432" fill="white"/>
</clipPath>
</defs>
</svg>
